<svg width="743" height="279" viewBox="0 0 743 279" fill="none" xmlns="http://www.w3.org/2000/svg">
<g clip-path="url(#clip0_248_809)">
<path d="M206.702 170.603C206.207 142.097 193.157 119.775 193.157 119.775C161.366 64.3086 102.423 73.5839 102.423 73.5839C71.993 75.9954 55.1699 97.143 55.1699 97.143V0.371094H0V275.661H52.6341L52.9433 253.524C73.4774 279.68 110.835 279 110.835 279C151.532 279.186 172.87 256.863 172.87 256.863C211.34 224.4 206.702 170.665 206.702 170.665V170.603ZM102.856 231.449C72.9826 231.449 54.5514 206.591 54.5514 175.983C54.5514 145.374 72.8589 120.517 102.856 120.517C132.853 120.517 151.161 145.374 151.161 175.983C151.161 206.591 132.358 231.449 102.856 231.449Z" fill="#4C4D4F"/>
<path d="M291.745 0H236.451V275.352H291.745V0Z" fill="#4C4D4F"/>
<path d="M505.312 117.55C505.312 117.55 481.438 71.668 421.63 73.3994C421.63 73.3994 343.823 69.2564 323.722 150.508C323.722 150.508 307.208 214.383 354.646 254.082C354.646 254.082 392.622 289.451 459.791 275.353C459.791 275.353 491.087 268.984 507.23 246.476L478.346 212.961C478.346 212.961 461.152 234.418 425.279 232.192C425.279 232.192 385.448 231.821 376.665 192.185H519.785C519.785 192.185 526.465 149.395 505.374 117.488L505.312 117.55ZM375.799 158.608C382.85 114.149 423.238 116.869 423.238 116.869C464.615 117.921 469.13 158.608 469.13 158.608H375.861H375.799Z" fill="#4C4D4F"/>
<path d="M602.293 76.3678V102.4C602.293 102.4 619.796 71.792 667.977 73.3379V126.887C667.977 126.887 642.743 120.704 623.631 134.864C623.631 134.864 606.622 144.943 604.829 178.396V275.353H549.164V76.1205L602.231 76.3678H602.293Z" fill="#4C4D4F"/>
<path d="M707.004 278.815C726.918 278.815 743.062 262.674 743.062 242.765C743.062 222.855 726.918 206.715 707.004 206.715C687.089 206.715 670.945 222.855 670.945 242.765C670.945 262.674 687.089 278.815 707.004 278.815Z" fill="#405FAB"/>
</g>
<defs>
<clipPath id="clip0_248_809">
<rect width="743" height="279" fill="white"/>
</clipPath>
</defs>
</svg>
