<svg width="32" height="32" viewBox="0 0 32 32" fill="none" xmlns="http://www.w3.org/2000/svg">
<mask id="mask0_43_12163" style="mask-type:alpha" maskUnits="userSpaceOnUse" x="0" y="0" width="32" height="32">
<rect width="32" height="32" fill="#D9D9D9"/>
</mask>
<g mask="url(#mask0_43_12163)">
<path d="M7.08612 27.3317C6.41256 27.3317 5.84245 27.0984 5.37578 26.6317C4.90911 26.165 4.67578 25.5949 4.67578 24.9214V7.07537C4.67578 6.40182 4.90911 5.83171 5.37578 5.36504C5.84245 4.89837 6.41256 4.66504 7.08612 4.66504H15.0221C15.3057 4.66504 15.5432 4.76082 15.7348 4.95237C15.9261 5.14371 16.0218 5.38126 16.0218 5.66504C16.0218 5.94882 15.9261 6.18637 15.7348 6.37771C15.5432 6.56926 15.3057 6.66504 15.0221 6.66504H7.08612C6.98345 6.66504 6.88945 6.70782 6.80412 6.79337C6.71856 6.87871 6.67578 6.97271 6.67578 7.07537V24.9214C6.67578 25.024 6.71856 25.118 6.80412 25.2034C6.88945 25.2889 6.98345 25.3317 7.08612 25.3317H15.0221C15.3057 25.3317 15.5432 25.4275 15.7348 25.619C15.9261 25.8104 16.0218 26.0479 16.0218 26.3317C16.0218 26.6155 15.9261 26.853 15.7348 27.0444C15.5432 27.2359 15.3057 27.3317 15.0221 27.3317H7.08612ZM23.4988 16.9984H13.1375C12.8537 16.9984 12.616 16.9026 12.4244 16.711C12.2331 16.5197 12.1375 16.2822 12.1375 15.9984C12.1375 15.7146 12.2331 15.477 12.4244 15.2857C12.616 15.0942 12.8537 14.9984 13.1375 14.9984H23.4988L20.9348 12.4344C20.7501 12.2497 20.6557 12.0245 20.6515 11.7587C20.6472 11.4929 20.7417 11.2566 20.9348 11.0497C21.1279 10.8428 21.3621 10.7359 21.6375 10.729C21.9126 10.7224 22.1536 10.8224 22.3605 11.029L26.4861 15.1547C26.727 15.3958 26.8475 15.677 26.8475 15.9984C26.8475 16.3197 26.727 16.6009 26.4861 16.842L22.3605 20.9677C22.1622 21.1659 21.9268 21.2637 21.6541 21.261C21.3815 21.2586 21.1417 21.1539 20.9348 20.947C20.7417 20.7402 20.6486 20.5026 20.6555 20.2344C20.6621 19.9659 20.7621 19.7352 20.9555 19.542L23.4988 16.9984Z" fill="#171719"/>
</g>
</svg>
