<svg width="32" height="32" viewBox="0 0 32 32" fill="none" xmlns="http://www.w3.org/2000/svg">
<path d="M12.5672 25.8275L13.3503 27.5801C13.583 28.1018 13.9629 28.5451 14.4438 28.8561C14.9247 29.1672 15.486 29.3328 16.0596 29.3327C16.6331 29.3328 17.1944 29.1672 17.6753 28.8561C18.1562 28.5451 18.5361 28.1018 18.7689 27.5801L19.5519 25.8275C19.8306 25.2056 20.2995 24.6872 20.8917 24.346C21.4876 24.0039 22.1769 23.8582 22.8611 23.9297L24.777 24.1327C25.3473 24.1927 25.9228 24.0868 26.4339 23.8278C26.9449 23.5688 27.3694 23.1678 27.656 22.6734C27.9429 22.1794 28.0796 21.6131 28.0495 21.0432C28.0194 20.4733 27.8237 19.9244 27.4863 19.4631L26.352 17.9119C25.948 17.3555 25.7322 16.6858 25.7357 15.9993C25.7355 15.3148 25.9534 14.6478 26.3579 14.0942L27.4922 12.5431C27.8297 12.0817 28.0254 11.5328 28.0555 10.9629C28.0856 10.3931 27.9489 9.82674 27.6619 9.33268C27.3754 8.83833 26.9508 8.43733 26.4398 8.17832C25.9288 7.9193 25.3532 7.81339 24.7829 7.87342L22.8671 8.07639C22.1829 8.14789 21.4935 8.00218 20.8976 7.66009C20.3043 7.31702 19.8353 6.79583 19.5579 6.1712L18.7689 4.41861C18.5361 3.89691 18.1562 3.45364 17.6753 3.14255C17.1944 2.83146 16.6331 2.66592 16.0596 2.66602C15.486 2.66592 14.9247 2.83146 14.4438 3.14255C13.9629 3.45364 13.583 3.89691 13.3503 4.41861L12.5672 6.1712C12.2898 6.79583 11.8208 7.31702 11.2275 7.66009C10.6316 8.00218 9.9422 8.14789 9.25802 8.07639L7.3362 7.87342C6.76591 7.81339 6.19035 7.9193 5.67934 8.17832C5.16832 8.43733 4.74378 8.83833 4.45719 9.33268C4.17025 9.82674 4.03354 10.3931 4.06366 10.9629C4.09379 11.5328 4.28944 12.0817 4.6269 12.5431L5.76123 14.0942C6.16576 14.6478 6.38361 15.3148 6.38348 15.9993C6.38361 16.6839 6.16576 17.3509 5.76123 17.9045L4.6269 19.4556C4.28944 19.917 4.09379 20.4659 4.06366 21.0358C4.03354 21.6056 4.17025 22.172 4.45719 22.666C4.74406 23.1601 5.16865 23.5609 5.6796 23.8199C6.19054 24.0789 6.76595 24.1849 7.3362 24.1253L9.25207 23.9223C9.93625 23.8508 10.6256 23.9965 11.2215 24.3386C11.8171 24.6807 12.2883 25.202 12.5672 25.8275Z" stroke="#171B22" stroke-width="2" stroke-linecap="round" stroke-linejoin="round"/>
<path d="M16.0572 19.9993C18.277 19.9993 20.0765 18.2085 20.0765 15.9993C20.0765 13.7902 18.277 11.9993 16.0572 11.9993C13.8374 11.9993 12.0379 13.7902 12.0379 15.9993C12.0379 18.2085 13.8374 19.9993 16.0572 19.9993Z" stroke="#171B22" stroke-width="2" stroke-linecap="round" stroke-linejoin="round"/>
</svg>
